<svg width="19" height="18" viewBox="0 0 19 18" fill="none" xmlns="http://www.w3.org/2000/svg">
<path d="M3.79 2C3.85 2.89 4 3.76 4.24 4.59L3.04 5.79C2.63 4.59 2.37 3.32 2.28 2H3.79ZM13.65 14.02C14.5 14.26 15.37 14.41 16.25 14.47V15.96C14.93 15.87 13.66 15.61 12.45 15.21L13.65 14.02ZM4.75 0H1.25C0.7 0 0.25 0.45 0.25 1C0.25 10.39 7.86 18 17.25 18C17.8 18 18.25 17.55 18.25 17V13.51C18.25 12.96 17.8 12.51 17.25 12.51C16.01 12.51 14.8 12.31 13.68 11.94C13.58 11.9 13.47 11.89 13.37 11.89C13.11 11.89 12.86 11.99 12.66 12.18L10.46 14.38C7.63 12.93 5.31 10.62 3.87 7.79L6.07 5.59C6.35 5.31 6.43 4.92 6.32 4.57C5.95 3.45 5.75 2.25 5.75 1C5.75 0.45 5.3 0 4.75 0Z" fill="white"/>
</svg>
