<svg width="161" height="48" viewBox="0 0 161 48" fill="none" xmlns="http://www.w3.org/2000/svg">
<path d="M87.7527 8.00027L85.4412 14.3415C85.2993 14.8351 85.2092 15.3425 85.1723 15.8553C85.1334 15.3426 85.0426 14.8353 84.9013 14.3415L82.5898 8.00027H75.0419V23.3165H79.8859V14.2139C79.8972 14.5668 79.9706 14.9148 80.1028 15.2414L83.5331 23.3253H86.8441L90.2744 15.2414C90.4066 14.9148 90.48 14.5668 90.4913 14.2139V23.3253H95.3353V8.00907L87.7527 8.00027ZM66.5333 5.88578H59.5621C59.0807 5.88578 58.4541 5.66575 58.4541 5.00567C58.4541 4.30377 59.0807 4.12555 59.5621 4.12555H71.1345V0H59.1219C56.2575 0 53.8724 1.68322 53.8724 4.91325C53.8724 7.81984 55.9973 10.0047 58.8877 10.0069H66.0845C66.5637 10.0069 67.1925 10.227 67.1925 10.8871C67.1925 11.5867 66.5637 11.7672 66.0845 11.7672H54.228V15.8883H66.5225C69.389 15.8883 71.772 14.1149 71.772 10.8849C71.772 7.61301 69.1743 5.88578 66.5333 5.88578ZM66.5333 24.19H59.5621C59.0807 24.19 58.4541 23.97 58.4541 23.3099C58.4541 22.6102 59.0807 22.4298 59.5621 22.4298H71.1345V18.3064H59.1219C56.2575 18.3064 53.8724 19.9875 53.8724 23.2197C53.8724 26.1263 55.9973 28.309 58.8877 28.3112H66.0845C66.5637 28.3112 67.1925 28.5312 67.1925 29.1913C67.1925 29.891 66.5637 30.0714 66.0845 30.0714H54.228V34.1904H66.5225C69.389 34.1904 71.772 32.4169 71.772 29.1869C71.772 25.9129 69.1743 24.19 66.5333 24.19ZM104.54 8.00027L96.9074 23.3165H102.842L104.252 20.4847H110.757L112.166 23.3165H118.101L110.468 8.00027H104.54ZM105.678 16.6056L107.27 13.402C107.417 13.0841 107.497 12.7387 107.506 12.3877C107.515 12.7389 107.596 13.0845 107.745 13.402L109.334 16.6056H105.678ZM131.965 16.4142C131.953 16.0668 131.83 15.7326 131.616 15.4615L125.317 8.00467H119.725V23.3209H125.31V14.9092C125.322 15.2529 125.438 15.5844 125.644 15.8575L131.716 23.3165H137.262V8.00027H131.965V16.4142ZM154.258 8.00467V16.4142C154.246 16.0671 154.124 15.7331 153.911 15.4615L147.61 8.00467H142.017V23.3209H147.603V14.9092C147.614 15.2529 147.731 15.5844 147.937 15.8575L154.008 23.3165H159.555V8.00027L154.258 8.00467ZM11.6527 17.3141C11.5051 17.6397 11.424 17.9922 11.4141 18.3504C11.4044 17.9924 11.324 17.6401 11.1778 17.3141L6.75871 8.00027H0L8.05104 23.3165H14.7729L22.8239 8.00027H16.0717L11.6527 17.3141ZM25.066 23.3165H30.6842V8.00027H25.066V23.3165ZM41.0835 17.0743H49.5118V13.655H41.0835V11.7716H51.3441V8.00027H35.7581V23.3165H51.7517V19.1954H41.0835V17.0743Z" fill="white"/>
<path d="M79.7981 38.3807L78.7841 38.6677C78.7203 38.4987 78.6262 38.3345 78.5019 38.175C78.3807 38.0124 78.2149 37.8785 78.0044 37.7733C77.794 37.668 77.5245 37.6154 77.1961 37.6154C76.7465 37.6154 76.3718 37.719 76.0721 37.9263C75.7756 38.1304 75.6273 38.3903 75.6273 38.7059C75.6273 38.9865 75.7293 39.2082 75.9334 39.3708C76.1375 39.5334 76.4563 39.6689 76.89 39.7773L77.9805 40.0452C78.6374 40.2046 79.1269 40.4485 79.4489 40.777C79.771 41.1022 79.932 41.5215 79.932 42.0349C79.932 42.4558 79.8108 42.8321 79.5685 43.1637C79.3293 43.4953 78.9945 43.7568 78.5641 43.9481C78.1336 44.1394 77.633 44.2351 77.0622 44.2351C76.3129 44.2351 75.6927 44.0725 75.2016 43.7472C74.7105 43.422 74.3997 42.9469 74.2689 42.3219L75.3403 42.054C75.4423 42.4494 75.6353 42.746 75.9191 42.9437C76.206 43.1414 76.5807 43.2402 77.0431 43.2402C77.5692 43.2402 77.9869 43.1286 78.2962 42.9054C78.6087 42.679 78.7649 42.408 78.7649 42.0923C78.7649 41.8372 78.6757 41.6236 78.4971 41.4514C78.3185 41.276 78.0443 41.1453 77.6744 41.0592L76.45 40.7722C75.7772 40.6128 75.2829 40.3656 74.9672 40.0308C74.6547 39.6928 74.4985 39.2703 74.4985 38.7633C74.4985 38.3488 74.6149 37.9821 74.8477 37.6632C75.0836 37.3444 75.4041 37.0941 75.809 36.9123C76.2172 36.7306 76.6796 36.6397 77.1961 36.6397C77.9231 36.6397 78.4939 36.7991 78.9084 37.118C79.3261 37.4369 79.6227 37.8578 79.7981 38.3807ZM83.6584 44.2542C83.1928 44.2542 82.7703 44.1665 82.3909 43.9912C82.0114 43.8126 81.7101 43.5559 81.4869 43.2211C81.2637 42.8831 81.1521 42.4749 81.1521 41.9966C81.1521 41.5757 81.235 41.2346 81.4008 40.9731C81.5666 40.7084 81.7882 40.5012 82.0656 40.3513C82.3431 40.2014 82.6492 40.0898 82.984 40.0165C83.322 39.94 83.6616 39.8794 84.0028 39.8347C84.4492 39.7773 84.8111 39.7343 85.0885 39.7056C85.3691 39.6737 85.5732 39.6211 85.7007 39.5477C85.8315 39.4744 85.8968 39.3469 85.8968 39.1651V39.1268C85.8968 38.6549 85.7677 38.2882 85.5094 38.0268C85.2543 37.7653 84.8669 37.6345 84.3471 37.6345C83.8082 37.6345 83.3857 37.7525 83.0796 37.9885C82.7735 38.2245 82.5583 38.4764 82.4339 38.7442L81.3625 38.3616C81.5539 37.9151 81.809 37.5676 82.1278 37.3189C82.4499 37.067 82.8006 36.8916 83.1801 36.7927C83.5627 36.6907 83.939 36.6397 84.3089 36.6397C84.5448 36.6397 84.8159 36.6684 85.122 36.7258C85.4313 36.78 85.7294 36.8932 86.0164 37.0654C86.3066 37.2376 86.5473 37.4974 86.7386 37.845C86.93 38.1926 87.0256 38.6581 87.0256 39.2416V44.082H85.8968V43.0872H85.8394C85.7629 43.2466 85.6354 43.4172 85.4568 43.5989C85.2782 43.7807 85.0407 43.9354 84.7441 44.0629C84.4476 44.1904 84.0857 44.2542 83.6584 44.2542ZM83.8306 43.2402C84.277 43.2402 84.6532 43.1525 84.9594 42.9772C85.2687 42.8018 85.5014 42.5754 85.6577 42.298C85.8171 42.0206 85.8968 41.7288 85.8968 41.4227V40.3896C85.849 40.447 85.7438 40.4996 85.5811 40.5474C85.4217 40.592 85.2368 40.6319 85.0263 40.667C84.8191 40.6989 84.6166 40.7276 84.4189 40.7531C84.2244 40.7754 84.0665 40.7945 83.9454 40.8105C83.652 40.8487 83.3778 40.9109 83.1227 40.997C82.8708 41.0799 82.6667 41.2059 82.5105 41.3749C82.3574 41.5407 82.2809 41.7671 82.2809 42.054C82.2809 42.4462 82.426 42.7428 82.7161 42.9437C83.0095 43.1414 83.381 43.2402 83.8306 43.2402ZM90.08 34.2864V44.082H88.9512V34.2864H90.08ZM94.9973 44.2351C94.3341 44.2351 93.7522 44.0772 93.2515 43.7616C92.7541 43.4459 92.3651 43.0043 92.0845 42.4367C91.8071 41.8691 91.6684 41.2059 91.6684 40.447C91.6684 39.6817 91.8071 39.0136 92.0845 38.4429C92.3651 37.8721 92.7541 37.4289 93.2515 37.1132C93.7522 36.7975 94.3341 36.6397 94.9973 36.6397C95.6606 36.6397 96.2409 36.7975 96.7384 37.1132C97.239 37.4289 97.628 37.8721 97.9054 38.4429C98.186 39.0136 98.3263 39.6817 98.3263 40.447C98.3263 41.2059 98.186 41.8691 97.9054 42.4367C97.628 43.0043 97.239 43.4459 96.7384 43.7616C96.2409 44.0772 95.6606 44.2351 94.9973 44.2351ZM94.9973 43.2211C95.5011 43.2211 95.9157 43.092 96.2409 42.8337C96.5662 42.5754 96.8069 42.2358 96.9632 41.8149C97.1194 41.394 97.1975 40.938 97.1975 40.447C97.1975 39.9559 97.1194 39.4983 96.9632 39.0742C96.8069 38.6501 96.5662 38.3074 96.2409 38.0459C95.9157 37.7844 95.5011 37.6537 94.9973 37.6537C94.4935 37.6537 94.079 37.7844 93.7538 38.0459C93.4285 38.3074 93.1878 38.6501 93.0315 39.0742C92.8753 39.4983 92.7972 39.9559 92.7972 40.447C92.7972 40.938 92.8753 41.394 93.0315 41.8149C93.1878 42.2358 93.4285 42.5754 93.7538 42.8337C94.079 43.092 94.4935 43.2211 94.9973 43.2211ZM101.043 39.6625V44.082H99.9147V36.7353H101.005V37.8833H101.101C101.273 37.5102 101.535 37.2105 101.885 36.9841C102.236 36.7545 102.689 36.6397 103.244 36.6397C103.741 36.6397 104.176 36.7417 104.549 36.9458C104.922 37.1467 105.213 37.4528 105.42 37.8641C105.627 38.2723 105.731 38.7888 105.731 39.4138V44.082H104.602V39.4904C104.602 38.9132 104.452 38.4636 104.152 38.1415C103.853 37.8163 103.441 37.6537 102.918 37.6537C102.558 37.6537 102.236 37.7318 101.952 37.888C101.672 38.0443 101.45 38.2723 101.287 38.572C101.125 38.8717 101.043 39.2353 101.043 39.6625ZM114.584 36.7353V37.6919H110.623V36.7353H114.584ZM111.81 44.082V35.7213C111.81 35.3004 111.909 34.9497 112.106 34.6691C112.304 34.3885 112.561 34.178 112.876 34.0377C113.192 33.8974 113.525 33.8273 113.876 33.8273C114.153 33.8273 114.38 33.8496 114.555 33.8942C114.73 33.9389 114.861 33.9803 114.947 34.0186L114.622 34.9943C114.565 34.9752 114.485 34.9513 114.383 34.9226C114.284 34.8939 114.153 34.8795 113.991 34.8795C113.618 34.8795 113.348 34.9736 113.182 35.1617C113.02 35.3499 112.938 35.6257 112.938 35.9892V44.082H111.81ZM116.031 44.082V36.7353H117.16V44.082H116.031ZM116.605 35.5109C116.385 35.5109 116.195 35.436 116.036 35.2861C115.88 35.1362 115.802 34.9561 115.802 34.7456C115.802 34.5352 115.88 34.355 116.036 34.2051C116.195 34.0553 116.385 33.9803 116.605 33.9803C116.825 33.9803 117.013 34.0553 117.169 34.2051C117.329 34.355 117.409 34.5352 117.409 34.7456C117.409 34.9561 117.329 35.1362 117.169 35.2861C117.013 35.436 116.825 35.5109 116.605 35.5109ZM119.093 44.082V36.7353H120.183V37.845H120.26C120.394 37.4815 120.636 37.1865 120.987 36.9601C121.337 36.7337 121.733 36.6206 122.173 36.6206C122.256 36.6206 122.359 36.6221 122.484 36.6253C122.608 36.6285 122.702 36.6333 122.766 36.6397V37.7876C122.728 37.778 122.64 37.7637 122.503 37.7446C122.369 37.7222 122.227 37.7111 122.077 37.7111C121.72 37.7111 121.401 37.786 121.121 37.9359C120.843 38.0826 120.623 38.2866 120.461 38.5481C120.301 38.8064 120.221 39.1013 120.221 39.433V44.082H119.093ZM123.969 44.082V36.7353H125.06V37.8833H125.156C125.309 37.4911 125.556 37.1865 125.897 36.9697C126.238 36.7497 126.648 36.6397 127.126 36.6397C127.611 36.6397 128.014 36.7497 128.336 36.9697C128.661 37.1865 128.915 37.4911 129.097 37.8833H129.173C129.361 37.5038 129.644 37.2025 130.02 36.9793C130.396 36.7529 130.847 36.6397 131.373 36.6397C132.03 36.6397 132.568 36.8454 132.985 37.2567C133.403 37.6648 133.612 38.301 133.612 39.1651V44.082H132.483V39.1651C132.483 38.623 132.335 38.2356 132.038 38.0028C131.742 37.7701 131.393 37.6537 130.991 37.6537C130.474 37.6537 130.074 37.8099 129.79 38.1224C129.506 38.4317 129.365 38.8239 129.365 39.299V44.082H128.217V39.0503C128.217 38.6326 128.081 38.2962 127.81 38.0411C127.539 37.7828 127.19 37.6537 126.763 37.6537C126.469 37.6537 126.195 37.7318 125.94 37.888C125.688 38.0443 125.484 38.2611 125.328 38.5385C125.175 38.8128 125.098 39.13 125.098 39.4904V44.082H123.969ZM138.526 44.2351C137.862 44.2351 137.28 44.0772 136.78 43.7616C136.282 43.4459 135.893 43.0043 135.613 42.4367C135.335 41.8691 135.197 41.2059 135.197 40.447C135.197 39.6817 135.335 39.0136 135.613 38.4429C135.893 37.8721 136.282 37.4289 136.78 37.1132C137.28 36.7975 137.862 36.6397 138.526 36.6397C139.189 36.6397 139.769 36.7975 140.267 37.1132C140.767 37.4289 141.156 37.8721 141.434 38.4429C141.714 39.0136 141.855 39.6817 141.855 40.447C141.855 41.2059 141.714 41.8691 141.434 42.4367C141.156 43.0043 140.767 43.4459 140.267 43.7616C139.769 44.0772 139.189 44.2351 138.526 44.2351ZM138.526 43.2211C139.029 43.2211 139.444 43.092 139.769 42.8337C140.094 42.5754 140.335 42.2358 140.491 41.8149C140.648 41.394 140.726 40.938 140.726 40.447C140.726 39.9559 140.648 39.4983 140.491 39.0742C140.335 38.6501 140.094 38.3074 139.769 38.0459C139.444 37.7844 139.029 37.6537 138.526 37.6537C138.022 37.6537 137.607 37.7844 137.282 38.0459C136.957 38.3074 136.716 38.6501 136.56 39.0742C136.404 39.4983 136.325 39.9559 136.325 40.447C136.325 40.938 136.404 41.394 136.56 41.8149C136.716 42.2358 136.957 42.5754 137.282 42.8337C137.607 43.092 138.022 43.2211 138.526 43.2211ZM144.858 44.082L142.619 36.7353H143.805L145.393 42.3602H145.47L147.039 36.7353H148.244L149.794 42.341H149.87L151.458 36.7353H152.644L150.406 44.082H149.296L147.689 38.4381H147.574L145.967 44.082H144.858ZM154.729 46.837C154.538 46.837 154.367 46.8211 154.217 46.7892C154.067 46.7605 153.964 46.7318 153.906 46.7031L154.193 45.7083C154.467 45.7784 154.71 45.8039 154.92 45.7848C155.131 45.7656 155.317 45.6716 155.48 45.5026C155.646 45.3368 155.797 45.0673 155.934 44.6943L156.145 44.1203L153.428 36.7353H154.652L156.68 42.5897H156.757L158.785 36.7353H160.009L156.891 45.1534C156.751 45.5329 156.577 45.847 156.369 46.0957C156.162 46.3476 155.921 46.5341 155.647 46.6553C155.376 46.7765 155.07 46.837 154.729 46.837Z" fill="white"/>
</svg>
